#!OML:ASF E:\motion texture\Top Level 1\Subject 1\Session 1\male.ASF
:FULLY-SPECIFIED
:DEGREES
207
root 4.11653 18.1077 4.70692 -305.97 -78.3849 312.137
lowerback -0.120116 0.765438 5.63036
upperback -1.23304 0.999361 4.01971
thorax -1.17565 0.423702 0.972185
lowerneck -14.1629 -7.04737 -9.3336
upperneck 11.4756 -8.15126 3.55265
head 6.33265 -4.08963 1.81987
rclavicle 3.19546e-014 -1.90833e-014
rhumerus -56.6219 -23.4961 -51.407
rradius 15.1427
rwrist 20.7607
rhand -7.99506 -29.6479
rfingers 7.12502
rthumb 17.9136 -58.8429
lclavicle 3.19546e-014 -1.90833e-014
lhumerus -64.2384 25.5159 46.67
lradius 17.3162
lwrist -36.8896
lhand 0.779258 19.7647
lfingers 7.12502
lthumb 26.3366 47.9561
rfemur -10.1088 3.73856 31.8213
rtibia 15.9289
rfoot -8.42869 -13.0658
rtoes 14.8208
lfemur -26.5869 -1.48623 -7.16686
ltibia 63.3526
lfoot -2.55371 -1.43984
ltoes -14.0627
208
root 3.97078 18.1105 4.70192 -306.097 -78.3013 312.232
lowerback -0.0637509 0.788525 5.76866
upperback -1.20133 1.03424 3.97297
thorax -1.17071 0.440231 0.84642
lowerneck -14.0884 -7.10949 -9.37575
upperneck 11.536 -8.25036 3.64639
head 6.35188 -4.13363 1.84664
rclavicle 4.84538e-015 -7.95139e-015
rhumerus -57.0408 -23.3084 -51.0928
rradius 15.2299
rwrist 20.6049
rhand -7.87752 -29.4522
rfingers 7.12502
rthumb 18.0267 -58.6368
lclavicle 4.84538e-015 -7.95139e-015
lhumerus -64.2506 25.0625 47.1077
lradius 17.8571
lwrist -34.8943
lhand 0.304244 19.6645
lfingers 7.12502
lthumb 25.8818 47.923
rfemur -9.28321 3.81209 32.0352
rtibia 15.4483
rfoot -8.66036 -13.3016
rtoes 14.5347
lfemur -27.6121 -1.32736 -7.14812
ltibia 62.8738
lfoot -3.58383 -1.10536
ltoes -14.447
209
root 3.82652 18.1106 4.6973 -306.156 -78.2138 312.263
lowerback 0.00613391 0.808507 5.91873
upperback -1.17538 1.06658 3.92983
thorax -1.17904 0.454991 0.717678
lowerneck -14.0232 -7.16109 -9.40567
upperneck 11.592 -8.33282 3.71352
head 6.3686 -4.17101 1.86467
rclavicle 2.75068e-014 1.35174e-014
rhumerus -57.4016 -23.171 -50.7716
rradius 15.3083
rwrist 20.5
rhand -7.73834 -29.2782
rfingers 7.12502
rthumb 18.1606 -58.4504
lclavicle 2.75068e-014 1.35174e-014
lhumerus -64.2712 24.6786 47.4923
lradius 18.4017
lwrist -33.0522
lhand -0.235093 19.6117
lfingers 7.12502
lthumb 25.3652 47.9446
rfemur -8.48662 3.8996 32.2657
rtibia 15.0034
rfoot -8.90338 -13.5476
rtoes 14.2383
lfemur -28.5976 -1.16767 -7.10639
ltibia 62.2438
lfoot -4.53156 -0.760617
ltoes -14.9754
210
root 3.68425 18.108 4.69284 -306.111 -78.1261 312.201
lowerback 0.0865864 0.829728 6.08103
upperback -1.1427 1.10121 3.89054
thorax -1.18594 0.470838 0.586014
lowerneck -14.0226 -7.21059 -9.4297
upperneck 11.6532 -8.40447 3.76402
head 6.39616 -4.20328 1.87563
rclavicle -3.8763e-015 1.35174e-014
rhumerus -57.6767 -23.1052 -50.4548
rradius 15.3783
rwrist 20.4451
rhand -7.57479 -29.1124
rfingers 7.12502
rthumb 18.3179 -58.2699
lclavicle -3.8763e-015 1.35174e-014
lhumerus -64.2678 24.387 47.8334
lradius 18.94
lwrist -31.3856
lhand -0.825778 19.5421
lfingers 7.12502
lthumb 24.7992 47.9541
rfemur -7.73511 4.00653 32.5147
rtibia 14.6076
rfoot -9.16323 -13.8031
rtoes 13.9245
lfemur -29.5471 -0.997823 -7.03829
ltibia 61.4619
lfoot -5.37818 -0.399102
ltoes -15.5577
211
root 3.54334 18.1029 4.68891 -305.949 -78.0454 312.034
lowerback 0.168945 0.856861 6.25282
upperback -1.11356 1.14427 3.85287
thorax -1.19688 0.490607 0.450634
lowerneck -14.0286 -7.25458 -9.4467
upperneck 11.7042 -8.46658 3.79769
head 6.4199 -4.23172 1.8811
rclavicle 3.74709e-014 -2.38542e-015
rhumerus -57.8945 -23.0957 -50.1331
rradius 15.4376
rwrist 20.4416
rhand -7.39039 -28.9545
rfingers 7.12502
rthumb 18.4953 -58.0953
lclavicle 3.74709e-014 -2.38542e-015
lhumerus -64.2402 24.1384 48.1764
lradius 19.48
lwrist -29.861
lhand -1.46257 19.4732
lfingers 7.12502
lthumb 24.1888 47.9678
rfemur -7.02747 4.12771 32.775
rtibia 14.2645
rfoot -9.44312 -14.0462
rtoes 13.6164
lfemur -30.4494 -0.814998 -6.94893
ltibia 60.5295
lfoot -6.10954 -0.0181537
ltoes -16.1058
212
root 3.40355 18.0958 4.68557 -305.669 -77.9805 311.757
lowerback 0.246719 0.891279 6.42715
upperback -1.08041 1.19649 3.81634
thorax -1.20038 0.515133 0.315019
lowerneck -14.0414 -7.29347 -9.46501
upperneck 11.7368 -8.51927 3.82512
head 6.43802 -4.25586 1.88586
rclavicle -1.79403e-014 3.06128e-014
rhumerus -58.0495 -23.1786 -49.7736
rradius 15.4652
rwrist 20.5409
rhand -7.20375 -28.7838
rfingers 7.12502
rthumb 18.6749 -57.9074
lclavicle -1.79403e-014 3.06128e-014
lhumerus -64.1837 23.9525 48.5069
lradius 20.0051
lwrist -28.498
lhand -2.15622 19.3501
lfingers 7.12502
lthumb 23.5235 47.9316
rfemur -6.36857 4.25587 33.0375
rtibia 13.9916
rfoot -9.7509 -14.2623
rtoes 13.3101
lfemur -31.289 -0.620452 -6.84473
ltibia 59.4341
lfoot -6.70845 0.372537
ltoes -16.4539
213
root 3.26478 18.0868 4.68286 -305.275 -77.9338 311.381
lowerback 0.309623 0.935187 6.59983
upperback -1.04503 1.2599 3.77869
thorax -1.19234 0.545591 0.179296
lowerneck -14.046 -7.32782 -9.48586
upperneck 11.7435 -8.56561 3.85444
head 6.44629 -4.27673 1.89291
rclavicle 3.44643e-014 -4.1546e-014
rhumerus -58.1427 -23.3342 -49.4058
rradius 15.4683
rwrist 20.7149
rhand -7.02886 -28.6032
rfingers 7.12502
rthumb 18.8431 -57.7106
lclavicle 3.44643e-014 -4.1546e-014
lhumerus -64.0856 23.8053 48.8572
lradius 20.5165
lwrist -27.259
lhand -2.89034 19.1781
lfingers 7.12502
lthumb 22.8192 47.8482
rfemur -5.76368 4.38264 33.2946
rtibia 13.7869
rfoot -10.0843 -14.4426
rtoes 13.0118
lfemur -32.068 -0.418355 -6.72878
ltibia 58.1774
lfoot -7.20808 0.766485
ltoes -16.6597
214
root 3.12691 18.0762 4.68088 -304.779 -77.9126 310.922
lowerback 0.360167 0.987325 6.76064
upperback -1.01528 1.33351 3.73972
thorax -1.18242 0.581265 0.0488403
lowerneck -14.0343 -7.35525 -9.51242
upperneck 11.7278 -8.6025 3.88432
head 6.44432 -4.29328 1.9029
rclavicle 0 -1.43125e-014
rhumerus -58.166 -23.5216 -49.0696
rradius 15.4546
rwrist 20.9214
rhand -6.87286 -28.431
rfingers 7.12502
rthumb 18.9931 -57.5236
lclavicle 0 -1.43125e-014
lhumerus -63.9573 23.7056 49.2129
lradius 21.0029
lwrist -26.1563
lhand -3.69164 19.06
lfingers 7.12502
lthumb 22.05 47.8229
rfemur -5.21728 4.49553 33.5318
rtibia 13.6479
rfoot -10.4369 -14.5707
rtoes 12.7179
lfemur -32.7877 -0.214881 -6.61011
ltibia 56.7591
lfoot -7.62321 1.15825
ltoes -16.8044
215
root 2.98983 18.0644 4.67956 -304.203 -77.9179 310.403
lowerback 0.396288 1.04498 6.90616
upperback -0.989471 1.41334 3.69766
thorax -1.1679 0.620334 -0.076161
lowerneck -14.0119 -7.37471 -9.5396
upperneck 11.6926 -8.62851 3.91114
head 6.43348 -4.30484 1.91384
rclavicle -2.26118e-015 3.18055e-015
rhumerus -58.1185 -23.7367 -48.7778
rradius 15.429
rwrist 21.1599
rhand -6.75555 -28.2699
rfingers 7.12502
rthumb 19.1059 -57.3515
lclavicle -2.26118e-015 3.18055e-015
lhumerus -63.7985 23.6588 49.566
lradius 21.4549
lwrist -25.1882
lhand -4.56741 18.9761
lfingers 7.12502
lthumb 21.209 47.8358
rfemur -4.72694 4.59255 33.7424
rtibia 13.5712
rfoot -10.8072 -14.6489
rtoes 12.424
lfemur -33.4415 -0.0185548 -6.49134
ltibia 55.1753
lfoot -7.97166 1.53785
ltoes -16.9127
216
root 2.85334 18.0513 4.67888 -303.579 -77.952 309.861
lowerback 0.420285 1.10655 7.02564
upperback -0.975308 1.4979 3.65273
thorax -1.15837 0.661796 -0.189629
lowerneck -13.9746 -7.38666 -9.57433
upperneck 11.6448 -8.64381 3.9367
head 6.41566 -4.31179 1.92739
rclavicle 4.42296e-015 -1.98785e-016
rhumerus -57.9852 -23.9097 -48.6069
rradius 15.4118
rwrist 21.3382
rhand -6.68522 -28.1364
rfingers 7.12502
rthumb 19.1735 -57.2113
lclavicle 4.42296e-015 -1.98785e-016
lhumerus -63.6129 23.6628 49.9161
lradius 21.8667
lwrist -24.3586
lhand -5.50696 18.963
lfingers 7.12502
lthumb 20.3063 47.9214
rfemur -4.29246 4.66838 33.9155
rtibia 13.5457
rfoot -11.183 -14.6803
rtoes 12.1098
lfemur -34.0354 0.160473 -6.37953
ltibia 53.4288
lfoot -8.26037 1.90127
ltoes -17.0627
